<svg id="Layer_1" data-name="Layer 1" xmlns="http://www.w3.org/2000/svg" viewBox="0 0 595.28 841.89"><title>adult</title><path d="M234,603.76c-.35,2.95,0,5.29-.93,7-3.92,7.38-8.68,14.33-12.25,21.87q-13,27.58-25.15,55.61c-1.47,3.4-1.47,7.66-1.35,11.49.31,9.68,2,19.26-2,28.83-1.12,2.74,0,7.86,2,10.14,4.67,5.2,6.32,10.42,3.8,17.32-15.94,4.78-32.56,4.64-49.75,3.55,2.41,1.24,4.72,2.82,7.26,3.66,12.76,4.23,25.69,5.08,38.33,0,6.47-2.62,11.37-1.22,17.22,2.15,9.93,5.71,20.52,10.35,31,15,5.38,2.37,9.45,5.22,8.58,11.68s-6,8.25-11.21,8.25c-12.81,0-25.63-.65-38.44-1.23-16.15-.73-32.29-1.66-48.44-2.5-.44,0-.89,0-1.33-.09-25.75-3.54-26.3-11.31-21-30,2.47-8.69,6.13-17.05,8.46-25.77,1-3.7.14-8-.28-11.94s-2.55-8.32-1.89-12.14c2.83-16.31,5-33,10-48.61,8.58-26.47,19.23-52.26,28.93-78.37,1.53-4.13,2.4-8.52,4.06-12.59,1.12-2.75,3.1-5.14,4.69-7.69.57-.91,1.68-1.88,1.6-2.73-.68-7.13,4.89-10.79,8-15.94,2.75-4.5,3.25-10.39,4.64-15.69q6.09-23.29,12.1-46.6c1.33-5.12,2.83-10.2,3.81-15.38.25-1.33-1.15-3-1.8-4.48-1.31.93-3,1.57-3.85,2.82-6.81,10.47-6.76,10.51-12.83,11l5.49-13.85L201,468c-2.25,2.48-4.36,5.11-6.8,7.39-1.06,1-2.8,1.24-4.23,1.82-.44-1.6-1.44-3.29-1.21-4.8.55-3.62,1.66-7.15,2.55-10.71l-1.72-1.05-5,8.9-3.82-2.28c1.29-6,1.45-12.52,4.1-17.82,7.23-14.41,6.53-28.74,3.33-44A173.2,173.2,0,0,1,186,346.69c2.25-16.88,4.82-33.84,5.07-50.8.12-8.22.75-15.18,4.13-22.81,2.4-5.43.74-12.63,1-19a15.28,15.28,0,0,1,.61-3.91c2.9-9.49,6.36-18.85,8.68-28.49,2.07-8.64,2.72-17.61,4.37-26.37.8-4.25,1.69-8.82,3.9-12.41,4.38-7.11,9.63-13.7,14.7-20.36a15.34,15.34,0,0,1,4.64-3.68c6.71-3.84,13.75-7.16,20.2-11.38,7.41-4.85,14.35-4.81,21.66-.2A179.25,179.25,0,0,0,297.1,159.6c-5.52-5.69-10.26-12.63-16.78-16.75-7.19-4.56-9.66-9.66-8.29-17.49a21.17,21.17,0,0,0,.22-3.38c-1.82-2.05-3.34-3.16-4-4.66-3.16-6.72-6.44-13.42-9-20.38a75.65,75.65,0,0,1-4.35-17.12c-.81-7-1.27-14.31-.2-21.22A16,16,0,0,1,262,48.4c10-5.29,20.5-9.6,31-13.82a36.21,36.21,0,0,1,27.23-.17,37.9,37.9,0,0,0,8.38,1.82c9.3,1.26,17.36,4.66,23.91,13.36L345.7,48l5.89,8.07-.6.76L347.31,55c2.18,10.2,3.93,20.41,6.68,30.36,1.37,5,4.19,9.64,7,14,3.82,5.93,3.63,7.64-2.64,10.5-2.53,1.15-6.21,10.11-6.1,13.39.07,2.06-1.08,4.15-1.61,6.24-.57,2.25-1.43,4.51-1.51,6.8-.2,5.58-2.39,8.62-8.42,8.64-8.07,0-15.45,1.79-19.32,10.09-4.19,9-1.64,16.39,4.3,23.84,17.15,21.54,22.74,47,23.95,73.83.31,6.85,1,13.69,1.52,20.47,7.53,1.7,9.15,8.66,10.12,14,3.16,17.34,10.41,32.83,19.6,47.43a397.47,397.47,0,0,0,25.93,36.93c6.7,8.35,14.77,15.77,23,22.62,10,8.29,20.22,16.06,23.21,29.66a36.94,36.94,0,0,1,1.16,8.49c0,1.39-1.55,2.75-2.39,4.12-1.36-.9-3.19-1.51-4-2.77-1.68-2.72-2.81-5.78-5.08-9,1.81,10.56-5,14.52-12.42,17.86-1.41.64-3.47-.24-5.23-.3-2-.07-4,0-6.31,0-.12-.83-.65-1.92-.31-2.44,4.77-7.15.62-12.55-3.52-17.83-6.63-8.46-15.67-15.2-18.5-26.36-.24-.94-1.37-1.71-2.19-2.44q-21.78-19.35-43.61-38.65c-6-5.31-9.93-11.13-10-19.87-.11-9.45-2.12-18.89-3.38-28.32a15.9,15.9,0,0,0-1.25-3.36l-2.23.2q0,18.23,0,36.46c0,12.37,0,24.74,0,37.82l-31.86-5.41-.66,2.33c5.62,2.08,11.17,4.39,16.88,6.18,13.21,4.13,16.3,13,8.47,24.66a6,6,0,0,0-1.19,3.86c7.4,42,14.68,84,22.57,125.88,1.92,10.21,5.93,20,9,30,.45,1.46,1.38,3,1.18,4.4-1,7.16-1.16,13.9,3.68,20.13.94,1.21-.79,4.46-1.24,6.78-.65,3.37-1.92,6.79-1.76,10.13.71,14.74,2.64,29.47,2.61,44.2,0,16.47-.14,32.78,5.16,48.62a51.86,51.86,0,0,0,19.28,26.32c8.31,6,8.9,8.53,3.9,17.55-2.22,4,0,5.56,2.83,7.3,7.4,4.49,7.41,4.68.68,10.41-8.42,7.15-16.86,14.28-24.5,22.69,8.73-5.35,17.84-10.18,26.09-16.19,6.9-5,13.52-5.88,21.69-4.09,12.93,2.83,26.13,4.46,39.21,6.61,2.4.39,4.84.66,7.2,1.25,5.31,1.33,6.68,4.94,3.2,9.23a33,33,0,0,1-7.38,6.59c-19.57,12.91-40.95,20.77-64.41,22.77-6.83.58-13.61,2.12-20.44,2.39-14.15.55-18.85-3.94-21.17-16.28-1.9-10.12-6.06-19.84-9.67-29.57a7.85,7.85,0,0,0-5.38-4.11c-4.86-.66-6.86-3.68-8-7.7-1.89-6.59-3.4-13.29-5.4-19.84-4.65-15.19-10.37-30.12-14-45.53-4-17-6.1-34.37-9.26-51.54-.95-5.15-2.68-10.16-4.06-15.23-.12-.42-.53-.82-.51-1.21.62-21.14-11.81-37.78-19.67-55.91-4.47-10.31-10.32-20.08-16.27-29.65-6.41-10.3-13.66-20.08-20.55-30.09l-1.55.78c1,2.11,2,4.27,3.15,6.32,6.37,11.4,12.61,22.89,19.3,34.1,2.38,4,2,7,0,10.94-5,9.84-9.62,19.9-14,30.06C243.83,594.44,241.05,601.4,234,603.76Zm2.12-298c-7.39,0-11.35,3.44-13.21,12.34-3.4,16.21-6.85,32.45-9.31,48.82-1.2,8-.21,16.29-.21,24.46l1.74.34,11.7-16.34c14.87,9.23,49.8,16.84,61,13.11-2.29-.65-4.17-1.16-6-1.71-17.57-5.19-35.22-10.13-52.66-15.7-8.89-2.84-9.71-5.63-6.12-14.25.68-1.62,1.73-3.08,2.51-4.66,2.32-4.7,4.95-5.85,9.76-2.4s10.42,6,17.74,3.68c-7.69-5-14.66-9.26-21.34-13.92-7-4.9-7.49-7.26-4-15C230.43,318.38,233.24,312.21,236.13,305.81Z"/></svg>