<svg id="Layer_1" data-name="Layer 1" xmlns="http://www.w3.org/2000/svg" viewBox="0 0 595.28 841.89"><defs><style>.cls-1{fill:#fff;}</style></defs><title>bbt</title><path class="cls-1" d="M8.09,711.2V130.89H588.4V711.2ZM334.37,276.08l-9.18-3.62-.26.61c.8.33,1.58.73,2.4,1,2.35.7,4.71,1.35,7.07,2-.81,1.81-2,3.55-2.34,5.45a6.07,6.07,0,0,1-3.45,4.39c-1.56.86-3,1.89-4.68,2.93a6.15,6.15,0,0,1-.25-1c-.11-3.78-.2-7.55-.32-11.33-.06-2-.72-2.42-2.65-1.89l-1,.26-1-3.05-.9-1.63h1.88c-2.43-1.15-2.48-1.39-1.6-3.74.43-1.14.78-2.34-.08-3.55a2.52,2.52,0,0,1-.16-1.62,42,42,0,0,0,.67-4.42c0-.74-.74-1.47-.95-2.26a8.44,8.44,0,0,1-.13-1.93c-1-.28-1.78-.5-2.56-.69a2.51,2.51,0,0,0-.91-.08c-2,.28-2,.28-2.16-1.79-.43-4.69-.82-9.4-1.45-14.07a9.67,9.67,0,0,0-1.81-3.87c-.79-1.15-2-1.12-3.18-.36a2.09,2.09,0,0,0-1.09,2.58,3.18,3.18,0,0,1-1.6,3.58,1.51,1.51,0,0,1-1.39,0c-1-.86-2.63-1.47-2.3-3.2.22-1.19.87-2.29,1.21-3.46.29-1,.86-2.25.49-3a3.61,3.61,0,0,0-2.7-1.6,29.82,29.82,0,0,0-5.42,1c0-1.66,0-3.45,0-5.25,0-1.33-.06-2.67,0-4,0-.74.17-1.47.3-2.51,0,0,.45-.18.88-.32a7.43,7.43,0,0,0,5.28-6.15c.53-3.29-.9-5.86-3.53-7.77a3.54,3.54,0,0,1-1.72-4c.05-.26.31-.69.47-.68,2.6.09,3.45-1.6,4.72-3.57a23.32,23.32,0,0,0,2.77-5.59c.48-1.52.73-3.12,1.09-4.69a10.32,10.32,0,0,0-2,1.37c-1.95,1.24-4,2.38-5.92,3.61-.81.51-1.28,1.09-.5,2.15s-.36,1.27-1,1.52a2.13,2.13,0,0,1-1.41-.06c-.3-1.5-.48-3-.69-4.53l.34-.09-1.5-1.16L289,189.73c.18.15.71.37.76.67a6.34,6.34,0,0,1-.12,2.09,1.39,1.39,0,0,1-1,0c-.53-.39-1.4-1.09-1.31-1.44.37-1.39-.54-2-1.37-2.5-2.36-1.49-4.79-2.86-7.19-4.28l-1.89-1.14a13.33,13.33,0,0,0,1,3.81c1.24,3.15,2.8,6.06,6.11,7.56.25.11.61.42.6.63-.06,2.25,1.5,2.65,3.21,3.05.39.09,1,1,.89,1.22a11.51,11.51,0,0,1-2,3c-2.13,2.1-3.15,4.55-2.49,7.46a7.41,7.41,0,0,0,5.5,5.78c.51.15,1,.32,1.53.48l-.4.26c.07.64.12,1.27.2,1.9,0,.35.19.7.21,1.05q.26,4,.48,8c0,.86-2.67,4.25-3.5,4.32a2.14,2.14,0,0,1-.86-.27,3.3,3.3,0,0,0-4.79,2.74,22.14,22.14,0,0,0-.43,4.79c.42,6.15.8,12.31,1.58,18.42.38,3-.05,5-3.13,6.12a42.29,42.29,0,0,0-4.45,2.17,5.54,5.54,0,0,1,.09-1.44c.66-1.51,1.19-3,.39-4.63-.07-.15,0-.4.09-.59a3.55,3.55,0,0,0-1.63-4c-1.61-1-2.33-.89-3.84.39l-1.37-.2c0,.47.11.93.12,1.4a6.43,6.43,0,0,1-.07,1.33c-.19,1-.5,2-.63,3-.18,1.43-.21,2.88-.37,4.32a55.86,55.86,0,0,1-.76,5.58c-.38,1.76-.43,3.58-1.84,5.12a6.89,6.89,0,0,0-2.08,5.62,56.2,56.2,0,0,1,.06,6.66c-.87-.48-1.82-1-2.82-1.54a2.28,2.28,0,0,1-1.4-2.47,19.74,19.74,0,0,0-.14-3.72c-.52-4.2-2.51-6-6.72-6.29a25.21,25.21,0,0,1-4-.54,2.6,2.6,0,0,1-1.69-1.14c-1.18-3-2.11-6-3.29-9-1.34-3.36-2.65-6.76-6.11-8.69-1.85-1-2.73-1-4.38.19a12.55,12.55,0,0,1-2.58,1.14l-1,.48c1.6,1.18,1.66,2.38.67,3.86a2.76,2.76,0,0,0,.1,2c.65,2,1.24,4,.34,6.11-.57,1.33,1.15,3.65,2.55,3.79a4,4,0,0,1,2.68,1.07c.33.48-.25,1.82-.73,2.6-1.18,1.93-2.29,3.76-1.58,6.22.51,1.77.65,3.65,1,5.48a2.18,2.18,0,0,1-1.2,2.6c-1.49.73-1.64,2-1.53,3.4.26,3.4.43,6.81.76,10.21a4.35,4.35,0,0,0,1,2.33c.43.48,1.56,1,1.91.72a3.51,3.51,0,0,0,1-2,1.79,1.79,0,0,0-.4-1.3c-1.58-2-1.59-4.45-1.62-6.8a6,6,0,0,1,1-3.5c.66-.86,1.52-2.05,3.22-1.51a13.21,13.21,0,0,0,3.72.06l-.64-2c.91.33,1.74.37,2,.78,1.45,2.23,2.63,4.58,2,7.4a4.44,4.44,0,0,0-.15,1.69,33.14,33.14,0,0,1,.21,9.27c-.28,2.75-1.48,4.24-4.22,4.24-6.12,0-12.24,0-18.36,0-.5,0-1.38.49-1.42.82-.12,1-.66,1.16-1.48,1.13s-1.66,0-2.49,0c-3.76,0-3.1-.18-3.06,3,0,1.37-.4,1.8-1.77,1.77-3.07-.08-3.14,0-3.06,3,0,1.27-.4,1.57-1.59,1.56-4.67,0-9.33,0-14,0H15.65c-.41,0-.92-.13-1.22.06s-.67.84-.56,1.06c.79,1.53,1.68,3,2.58,4.49,1.37,2.26,2.82,4.47,4.16,6.76,1.75,3,3.39,6.05,5.15,9,2.2,3.77,4.46,7.5,6.7,11.24,1.85,3.1,3.79,6.14,5.52,9.3,1.13,2.08,2.76,3.93,2.76,6.56q0,144.29,0,288.59c0,1.45,0,2.91-.07,4.35-.06.93.3,1.23,1.15,1.17.41,0,.83,0,1.24,0H553.31a17.09,17.09,0,0,1,2,0c1.33.16,1.63-.41,1.63-1.68q0-125.16,0-250.32,0-22,0-44a3.72,3.72,0,0,1,.16-1.68c1.37-2.5,2.8-5,4.26-7.42,1.59-2.65,3.3-5.24,4.85-7.91,2.25-3.87,4.41-7.8,6.63-11.7q2.17-3.8,4.42-7.56c1.82-3,3.67-6,5.51-9,.52-.85.26-1.26-.69-1.31-.41,0-.83,0-1.24,0l-203.64-.07h-2c0-1.11-.06-2,0-2.85.11-1.24-.27-1.75-1.62-1.74-3.19,0-3.24,0-3.24-3.3,0-1.1-.4-1.47-1.45-1.45-2.18,0-4.36.05-6.53,0-.44,0-1.23-.46-1.24-.73,0-1.26-.82-1.23-1.7-1.23-4.62,0-9.23,0-13.85,0a2.21,2.21,0,0,1-1.52-.42C343,311.49,342,310,342.54,308c.26-1,0-2.18.14-3.25a26.1,26.1,0,0,1,1.25-5.53,43.76,43.76,0,0,1,3.28-6,10.3,10.3,0,0,1,1.74-1.76l.4.36-.63,2.09c.69-.4,1-.59,1.28-.73,1.06-.52,3.39.34,3.5,1.36a14.13,14.13,0,0,1-2.18,9.2c-.65,1-1.17,2.07-.48,3.15a2.18,2.18,0,0,0,1.68.73c1.39-.06,1.57-1.3,1.84-2.35a7.54,7.54,0,0,0,0-1.07,10.62,10.62,0,0,1,.22-1.33c.23-.94.51-1.87.72-2.81a44.63,44.63,0,0,0,.94-4.69,6.17,6.17,0,0,0-.24-3.37,8.19,8.19,0,0,1-.76-6.83,8.32,8.32,0,0,0-.56-6.69c-1.91-3.71-1.66-4.89.71-7.89a5.35,5.35,0,0,0,1.44-3.73c-.05-1.78.69-3.58,1.06-5.38.1-.49.32-1.12.12-1.47-.84-1.46-.17-2.56.61-3.71a14.17,14.17,0,0,0,.83-1.6l-.25-.34c-1.6,1.09-2.72.68-3.58-.84-.11-.19-.73-.18-1.09-.12a9.65,9.65,0,0,0-6.29,3.7,19.71,19.71,0,0,0-4.22,9.74,32.44,32.44,0,0,1-.81,4.9,3.74,3.74,0,0,1-1.8,2.23C339.16,274.81,336.75,275.38,334.37,276.08ZM249,271.94l0,.29h3.73v-.29Z"/><path d="M334.38,276.07c2.36-.69,4.78-1.26,7.06-2.15a3.74,3.74,0,0,0,1.8-2.23,32.44,32.44,0,0,0,.81-4.9,19.71,19.71,0,0,1,4.22-9.74,9.65,9.65,0,0,1,6.29-3.7c.36-.07,1-.07,1.09.12.86,1.52,2,1.93,3.58.84l.25.34a14.17,14.17,0,0,1-.83,1.6c-.78,1.15-1.45,2.25-.61,3.71.2.35,0,1-.12,1.47-.37,1.8-1.11,3.6-1.06,5.38a5.35,5.35,0,0,1-1.44,3.73c-2.37,3-2.62,4.19-.71,7.89a8.32,8.32,0,0,1,.56,6.69,8.19,8.19,0,0,0,.76,6.83,6.17,6.17,0,0,1,.24,3.37,44.63,44.63,0,0,1-.94,4.69c-.21.94-.49,1.87-.72,2.81a10.62,10.62,0,0,0-.22,1.33,7.54,7.54,0,0,1,0,1.07c-.27,1-.45,2.29-1.84,2.35a2.18,2.18,0,0,1-1.68-.73c-.69-1.09-.17-2.12.48-3.15a14.13,14.13,0,0,0,2.18-9.2c-.11-1-2.44-1.88-3.5-1.36-.3.15-.59.34-1.28.73l.63-2.09-.4-.36a10.3,10.3,0,0,0-1.74,1.76,43.76,43.76,0,0,0-3.28,6,26.1,26.1,0,0,0-1.25,5.53c-.18,1.06.12,2.22-.14,3.25-.52,2,.42,3.51,1.55,4.93a2.21,2.21,0,0,0,1.52.42c4.62,0,9.23,0,13.85,0,.88,0,1.66,0,1.7,1.23,0,.27.8.71,1.24.73,2.18.08,4.36.06,6.53,0,1.05,0,1.45.35,1.45,1.45,0,3.28.05,3.34,3.24,3.3,1.35,0,1.74.49,1.62,1.74-.08.86,0,1.74,0,2.85h2l203.64.07c.41,0,.83,0,1.24,0,.95.05,1.21.46.69,1.31-1.85,3-3.7,6-5.51,9q-2.25,3.76-4.42,7.56c-2.22,3.89-4.37,7.82-6.63,11.7-1.56,2.67-3.26,5.26-4.85,7.91-1.46,2.45-2.89,4.92-4.26,7.42a3.72,3.72,0,0,0-.16,1.68q0,22,0,44,0,125.16,0,250.32c0,1.27-.3,1.84-1.63,1.68a17.09,17.09,0,0,0-2,0H43c-.41,0-.83,0-1.24,0-.85.05-1.21-.24-1.15-1.17.1-1.45.07-2.9.07-4.35q0-144.29,0-288.59c0-2.63-1.63-4.49-2.76-6.56-1.72-3.16-3.67-6.21-5.52-9.3-2.24-3.75-4.5-7.47-6.7-11.24-1.75-3-3.39-6.06-5.15-9-1.34-2.28-2.79-4.5-4.16-6.76-.9-1.48-1.79-3-2.58-4.49-.11-.22.25-.87.56-1.06s.8-.06,1.22-.06H194.87c4.67,0,9.33-.08,14,0,1.19,0,1.62-.29,1.59-1.56-.07-3,0-3.06,3.06-3,1.37,0,1.79-.4,1.77-1.77,0-3.21-.7-3,3.06-3,.83,0,1.66,0,2.49,0s1.35-.1,1.48-1.13c0-.34.92-.82,1.42-.82,6.12-.06,12.24,0,18.36,0,2.74,0,3.94-1.49,4.22-4.24a33.14,33.14,0,0,0-.21-9.27,4.44,4.44,0,0,1,.15-1.69c.63-2.82-.54-5.17-2-7.4-.26-.41-1.1-.44-2-.78l.64,2a13.21,13.21,0,0,1-3.72-.06c-1.7-.54-2.56.65-3.22,1.51a6,6,0,0,0-1,3.5c0,2.35,0,4.77,1.62,6.8a1.79,1.79,0,0,1,.4,1.3,3.51,3.51,0,0,1-1,2c-.36.23-1.48-.25-1.91-.72a4.35,4.35,0,0,1-1-2.33c-.33-3.39-.51-6.8-.76-10.21-.11-1.42,0-2.67,1.53-3.4a2.18,2.18,0,0,0,1.2-2.6c-.34-1.82-.48-3.7-1-5.48-.71-2.46.39-4.29,1.58-6.22.47-.77,1.06-2.11.73-2.6a4,4,0,0,0-2.68-1.07c-1.4-.14-3.12-2.46-2.55-3.79.9-2.11.31-4.09-.34-6.11a2.76,2.76,0,0,1-.1-2c1-1.48.94-2.68-.67-3.86l1-.48a12.55,12.55,0,0,0,2.58-1.14c1.65-1.23,2.53-1.22,4.38-.19,3.47,1.93,4.77,5.33,6.11,8.69,1.18,3,2.11,6,3.29,9a2.6,2.6,0,0,0,1.69,1.14,25.21,25.21,0,0,0,4,.54c4.21.29,6.19,2.09,6.72,6.29a19.74,19.74,0,0,1,.14,3.72,2.28,2.28,0,0,0,1.4,2.47c1,.49,2,1.06,2.82,1.54a56.2,56.2,0,0,0-.06-6.66,6.89,6.89,0,0,1,2.08-5.62c1.41-1.55,1.46-3.36,1.84-5.12a55.86,55.86,0,0,0,.76-5.58c.16-1.43.18-2.88.37-4.32.13-1,.44-2,.63-3a6.43,6.43,0,0,0,.07-1.33c0-.47-.08-.93-.12-1.4l1.37.2c1.51-1.29,2.23-1.37,3.84-.39a3.55,3.55,0,0,1,1.63,4c0,.2-.16.45-.09.59.8,1.63.26,3.12-.39,4.63a5.54,5.54,0,0,0-.09,1.44,42.29,42.29,0,0,1,4.45-2.17c3.08-1.08,3.51-3.11,3.13-6.12-.77-6.11-1.16-12.27-1.58-18.42a22.14,22.14,0,0,1,.43-4.79,3.3,3.3,0,0,1,4.79-2.74,2.14,2.14,0,0,0,.86.27c.83-.08,3.55-3.46,3.5-4.32q-.23-4-.48-8c0-.35-.17-.7-.21-1.05-.08-.63-.14-1.27-.2-1.9l.4-.26c-.51-.16-1-.33-1.53-.48a7.41,7.41,0,0,1-5.5-5.78c-.65-2.91.37-5.36,2.49-7.46a11.51,11.51,0,0,0,2-3c.11-.22-.49-1.13-.89-1.22-1.71-.41-3.27-.81-3.21-3.05,0-.21-.35-.51-.6-.63-3.31-1.5-4.87-4.4-6.11-7.56a13.33,13.33,0,0,1-1-3.81l1.89,1.14c2.4,1.42,4.83,2.8,7.19,4.28.84.53,1.74,1.1,1.37,2.5-.09.35.78,1,1.31,1.44a1.39,1.39,0,0,0,1,0,6.34,6.34,0,0,0,.12-2.09c0-.3-.58-.52-.76-.67l1.15-3.65,1.5,1.16-.34.09c.21,1.51.38,3,.69,4.53a2.13,2.13,0,0,0,1.41.06c.61-.25,1.64-.61,1-1.52s-.31-1.64.5-2.15c2-1.23,4-2.37,5.92-3.61a10.32,10.32,0,0,1,2-1.37c-.35,1.56-.61,3.16-1.09,4.69a23.32,23.32,0,0,1-2.77,5.59c-1.27,2-2.12,3.66-4.72,3.57-.15,0-.41.43-.47.68a3.54,3.54,0,0,0,1.72,4c2.63,1.91,4.06,4.48,3.53,7.77a7.43,7.43,0,0,1-5.28,6.15c-.43.15-.86.31-.88.32-.13,1-.28,1.77-.3,2.51,0,1.33,0,2.67,0,4,0,1.8,0,3.59,0,5.25a29.82,29.82,0,0,1,5.42-1,3.61,3.61,0,0,1,2.7,1.6c.37.71-.2,2-.49,3-.34,1.17-1,2.27-1.21,3.46-.32,1.73,1.27,2.34,2.3,3.2a1.51,1.51,0,0,0,1.39,0,3.18,3.18,0,0,0,1.6-3.58,2.09,2.09,0,0,1,1.09-2.58c1.17-.75,2.39-.79,3.18.36a9.67,9.67,0,0,1,1.81,3.87c.64,4.67,1,9.37,1.45,14.07.19,2.08.13,2.07,2.16,1.79a2.51,2.51,0,0,1,.91.08c.78.19,1.55.41,2.56.69a8.44,8.44,0,0,0,.13,1.93c.21.79,1,1.52.95,2.26a42,42,0,0,1-.67,4.42,2.52,2.52,0,0,0,.16,1.62c.86,1.21.5,2.41.08,3.55-.88,2.35-.83,2.59,1.6,3.74h-1.88l.9,1.63,1,3.05,1-.26c1.93-.53,2.59-.08,2.65,1.89.12,3.78.21,7.55.32,11.33a6.15,6.15,0,0,0,.25,1c1.66-1,3.12-2.08,4.68-2.93a6.07,6.07,0,0,0,3.45-4.39c.38-1.9,1.53-3.64,2.34-5.45Zm150.82,101V608.76h27.19V377.09ZM444.54,609.38V377.76h-27.2V609.38Zm-93.13-232V609.07H378.6V377.4ZM177.09,608.3v-2.15q0-112.55,0-225.1c0-.52,0-1,0-1.56,0-1.93-.12-2-2-2H153.89c-3.17,0-3.17,0-3.17,3.26q0,112.63,0,225.25v2.29Zm134,0v-.89q0-54.53,0-109.06,0-59.28,0-118.55c0-2.32,0-2.33-2.34-2.33h-21c-3,0-3,0-3,3q0,112.64,0,225.28v2.58Zm-92.61.15c8.25,0,16.38,0,24.5,0,1.1,0,1.26-.73,1.47-1.42a5.57,5.57,0,0,0,0-1.55q0-60.51,0-121,0-52.81,0-105.62c0-1.27-.55-1.43-1.61-1.42-7.31,0-14.62,0-21.93,0-2.56,0-2.56,0-2.56,2.52q0,113.55,0,227.1C218.43,607.56,218.47,608,218.49,608.48Zm-107.74.09a7.86,7.86,0,0,0,.11-.82q0-113.23,0-226.46a8,8,0,0,1,.16-2.15c.35-1.25,0-1.67-1.3-1.66-7.47,0-14.93,0-22.4,0-2.17,0-2.16,0-2.16,2.22q0,113.39,0,226.77c0,.7,0,1.4,0,2.08ZM261.28,303.18h-.63c0-3.72,0-7.45,0-11.17,0-.47-.62-1.28-1-1.31a2,2,0,0,0-1.47.91,5.49,5.49,0,0,0-.42,3.7c.24,1.91-.52,4.07.08,5.79.86,2.47-.11,4.54-1,6.31s-.67,3.25-.67,4.88c0,.36.68,1,1.08,1,1.26.1,2.55-.07,3.82-.06,2,0,4,.12,6,.1a1.23,1.23,0,0,0,.89-.77,28,28,0,0,0-.39-10.1c-.22-1.16-.66-2.28-.86-3.44-.42-2.42-.6-4.9-1.18-7.29-.44-1.83-2.19-.83-3.33-1s-.89.91-.89,1.59C261.27,296,261.28,299.57,261.28,303.18Zm23.09-5.42c0,1.2.07,2.13,0,3-.31,3.59-.63,7.18-1,10.77-.15,1.37.45,1.76,1.67,1.75,2.38,0,4.76,0,7.15,0s2.94-.52,2.93-3,0-5,0-7.46c0-3.83,0-3.87-3.85-4.36C289,298.16,286.7,298,284.37,297.76Zm45.29,4.1h-.09c0-2.59,0-5.17,0-7.76,0-3.7,0-3.73-3.65-3.6a10.75,10.75,0,0,0-2.13.51c.32.74.61,1.49,1,2.21.1.19.44.23.66.38.87.58.91,1.27.06,1.83a3.63,3.63,0,0,0-1.71,3.34c0,3.47,0,6.93.06,10.4.13,4.91-.82,4,4.36,4.18,1.16,0,1.52-.39,1.5-1.54C329.62,308.48,329.66,305.17,329.66,301.86Zm-24.87-3.6a39,39,0,0,1-4.21.49,2,2,0,0,0-2.16,2.27c-.08,3.31,0,6.62.15,9.92.05,1,.24,2.31,1.73,2.37a47.33,47.33,0,0,0,5,0,1.49,1.49,0,0,0,1.06-1c.14-2.72.14-5.44.22-8.17,0-.85-.12-1.3-1.11-1.44-1.4-.2-1.89-1.1-1.51-2.49A15.21,15.21,0,0,1,304.79,298.26Zm25.5-7.5a2.78,2.78,0,0,0-.19.69c0,6.89,0,13.78,0,20.67,0,1,.49,1.24,1.37,1.22,1.91,0,3.82,0,5.73,0,.81,0,1-.29,1-1.11,0-1.07.28-2.13.36-3.21.16-2.2.24-4.41.41-6.61.07-1,0-2.14.47-2.8a5.14,5.14,0,0,0,.65-5.24,7.32,7.32,0,0,0-1-1.52,5.54,5.54,0,0,0-1,1.44c-.39,1.34-.55,2.75-.93,4.09a8.17,8.17,0,0,0,.12,5.17,4.57,4.57,0,0,1,.07,3.14A4.23,4.23,0,0,0,337,310c.24.83-.33,1.89-.54,2.84a11.39,11.39,0,0,1-2.61-1c-.35-.23-.25-1.11-.39-1.68s-.15-1.4-.52-1.61a2.83,2.83,0,0,1-1.38-2.75c0-1.58.61-3.17-.14-4.75-.08-.18.13-.49.18-.74A14.51,14.51,0,0,0,330.29,290.77Zm-14.77,19.56c-2.35.29-2.69-.07-2.5-2.44a2.2,2.2,0,0,0,0-.62c-.56-2.72-1.09-5.44-1.71-8.14a4.86,4.86,0,0,0-.89-1.37,5.71,5.71,0,0,0-.82,1.52,45.64,45.64,0,0,0-.66,4.71q-.36,4.3-.53,8.62c0,.24.66.7,1,.73,1.29.09,2.59,0,3.88,0C315.46,313.36,315.94,312.74,315.53,310.33Zm-41.34-10.15.19,0a6.13,6.13,0,0,0,0-1.7,5.37,5.37,0,0,0-.9-1.34,5.79,5.79,0,0,0-.49,1.59c0,.92.31,1.85.23,2.76-.23,2.72-.64,5.43-.85,8.15a9.47,9.47,0,0,0,.36,2.89,1.42,1.42,0,0,0,.92.84c2.92.64,3.6.11,3.5-2.83a5.37,5.37,0,0,0-.75-1.87,10.08,10.08,0,0,1-1-1.92C274.93,304.54,274.59,302.35,274.19,300.18Zm3.49,10.74.35.18c0,.36,0,.73,0,1.09-.09,1,.38,1.27,1.29,1.23s1.89,0,2-1.19a49.59,49.59,0,0,0,.19-5.54c-.1-2.71-.3-5.42-.63-8.11-.05-.45-1-.8-1.47-1.19-.29.43-.88.89-.83,1.27.21,1.69.78,3.34.89,5a16.41,16.41,0,0,1-.48,4.5A13.31,13.31,0,0,1,277.69,310.92Zm43.3-5.11h-.19c-.1-2.12-.18-4.24-.31-6.35a4.41,4.41,0,0,0-.34-1.49.89.89,0,0,0-.75-.38.87.87,0,0,0-.52.61c-.26,1.56-.55,3.13-.67,4.7-.06.84.37,1.73.31,2.57-.18,2.31-.94,4.65.45,6.83a5.54,5.54,0,0,0,1.16,1c.29-.44.81-.87.83-1.32C321,309.94,321,307.87,321,305.81Zm-33.84-95.43c-.09-1-.16-1.78-.24-2.57-.1-1.06.3-1.31,1.27-.85a17.8,17.8,0,0,0,2,.7l.41-.44L289,203.58c-2,1.13-3.23,3.47-2.86,5.23.51,2.43,1.79,3.94,3.52,4.1a6.23,6.23,0,0,0,.44-1.13c.14-.73.19-1.47.27-2.21-.72.11-1.44.2-2.16.34A7.49,7.49,0,0,0,287.14,210.38ZM249,302a7,7,0,0,0-.16.86q-.27,4-.51,8a2,2,0,0,0,0,.77,8.41,8.41,0,0,0,.58,1.1c.26-.32.64-.61.75-1,.22-.73.29-1.52.45-2.27A10.43,10.43,0,0,0,249,302ZM276.41,270l6-6.4a30,30,0,0,0-4.25,1.8C275.67,266.59,275.65,266.66,276.41,270Zm54.7,15.62-5.58,3.52a15.5,15.5,0,0,0,4.46.32,1.28,1.28,0,0,0,.89-.82A23.83,23.83,0,0,0,331.1,285.58Zm-34.33-79.63a11.49,11.49,0,0,0-2.45-2.27c-1.1-.51-1.18.76-1.36,1.39a8.4,8.4,0,0,0,0,2.24,3.29,3.29,0,0,0,.9-.09C294.69,206.88,295.52,206.49,296.78,205.95Zm.16,4.57c-1.48-.52-2.38-.88-3.31-1.15s-1.22.12-.92,1,.76,1.84,1.29,3.11Zm-37.28,76.33-.79,2.54h5.27l.08-.22Zm32.45-52.37-1-1.69-2,2.51a6.71,6.71,0,0,0,1.62.85C292,236.43,291.91,235.47,292.11,234.47Zm15,27.21-2.23-5.12A3.26,3.26,0,0,0,307.16,261.68ZM254.81,309.9c-1.5.64-2.08,2-1.41,3a1.17,1.17,0,0,0,1,.37,1.11,1.11,0,0,0,.65-.83A20.63,20.63,0,0,0,254.81,309.9Z"/><path d="M334.41,276.06c-2.36-.67-4.73-1.31-7.07-2-.82-.25-1.6-.65-2.4-1l.26-.61,9.18,3.62Z"/><path d="M249,271.94h3.77v.29H249Z"/><path class="cls-1" d="M485.21,377.09h27.19V608.76H485.21Z"/><path class="cls-1" d="M444.54,609.38h-27.2V377.76h27.2Z"/><path class="cls-1" d="M351.41,377.4H378.6V609.07H351.41Z"/><path class="cls-1" d="M177.09,608.3H150.71V606q0-112.63,0-225.25c0-3.26,0-3.26,3.17-3.26H175c1.92,0,2,.08,2,2,0,.52,0,1,0,1.56q0,112.55,0,225.1Z"/><path class="cls-1" d="M311.11,608.33H284.8v-2.58q0-112.64,0-225.28c0-3,0-3,3-3h21c2.31,0,2.34,0,2.34,2.33q0,59.28,0,118.55,0,54.53,0,109.06Z"/><path class="cls-1" d="M218.49,608.48c0-.47-.06-.92-.06-1.37q0-113.55,0-227.1c0-2.53,0-2.52,2.56-2.52,7.31,0,14.62,0,21.93,0,1.06,0,1.61.16,1.61,1.42q0,52.81,0,105.62,0,60.51,0,121a5.57,5.57,0,0,1,0,1.55c-.21.7-.37,1.43-1.47,1.42C234.87,608.46,226.74,608.48,218.49,608.48Z"/><path class="cls-1" d="M110.75,608.56H85.16c0-.68,0-1.38,0-2.08q0-113.39,0-226.77c0-2.23,0-2.22,2.16-2.22,7.47,0,14.93,0,22.4,0,1.34,0,1.65.42,1.3,1.66a8,8,0,0,0-.16,2.15q0,113.23,0,226.46A7.86,7.86,0,0,1,110.75,608.56Z"/><path class="cls-1" d="M261.28,303.18c0-3.6,0-7.21,0-10.81,0-.68-.2-1.73.89-1.59s2.89-.86,3.33,1c.58,2.38.76,4.86,1.18,7.29.2,1.16.64,2.28.86,3.44a28,28,0,0,1,.39,10.1,1.23,1.23,0,0,1-.89.77c-2,0-4-.09-6-.1-1.27,0-2.56.16-3.82.06-.4,0-1.08-.66-1.08-1,0-1.63-.2-3.16.67-4.88s1.86-3.84,1-6.31c-.6-1.73.16-3.88-.08-5.79a5.49,5.49,0,0,1,.42-3.7,2,2,0,0,1,1.47-.91c.39,0,1,.84,1,1.31.08,3.72,0,7.45,0,11.17Z"/><path class="cls-1" d="M284.37,297.76c2.33.23,4.58.41,6.82.69,3.84.5,3.83.53,3.85,4.36q0,3.73,0,7.46c0,2.53-.48,3-2.93,3s-4.76,0-7.15,0c-1.22,0-1.82-.37-1.67-1.75.4-3.58.71-7.17,1-10.77C284.44,299.89,284.37,299,284.37,297.76Z"/><path class="cls-1" d="M329.66,301.86c0,3.31,0,6.62,0,9.93,0,1.15-.34,1.57-1.5,1.54-5.18-.13-4.23.73-4.36-4.18-.09-3.46,0-6.93-.06-10.4a3.63,3.63,0,0,1,1.71-3.34c.86-.56.81-1.25-.06-1.83-.21-.14-.56-.19-.66-.38-.37-.71-.65-1.47-1-2.21a10.75,10.75,0,0,1,2.13-.51c3.63-.12,3.64-.1,3.65,3.6,0,2.59,0,5.17,0,7.76Z"/><path class="cls-1" d="M304.79,298.26a15.21,15.21,0,0,0-.87,2c-.38,1.39.11,2.29,1.51,2.49,1,.14,1.14.59,1.11,1.44-.09,2.72-.08,5.45-.22,8.17a1.49,1.49,0,0,1-1.06,1,47.33,47.33,0,0,1-5,0c-1.49-.06-1.67-1.42-1.73-2.37-.19-3.3-.23-6.61-.15-9.92a2,2,0,0,1,2.16-2.27A39,39,0,0,0,304.79,298.26Z"/><path class="cls-1" d="M330.29,290.77a14.51,14.51,0,0,1,1.32,9.61c0,.25-.27.56-.18.74.75,1.57.15,3.16.14,4.75a2.83,2.83,0,0,0,1.38,2.75c.36.21.38,1.05.52,1.61s0,1.45.39,1.68a11.39,11.39,0,0,0,2.61,1c.21-1,.78-2,.54-2.84a4.23,4.23,0,0,1,.41-3.33,4.57,4.57,0,0,0-.07-3.14,8.17,8.17,0,0,1-.12-5.17c.38-1.34.54-2.75.93-4.09a5.54,5.54,0,0,1,1-1.44,7.32,7.32,0,0,1,1,1.52,5.14,5.14,0,0,1-.65,5.24c-.51.66-.4,1.85-.47,2.8-.17,2.2-.25,4.41-.41,6.61-.08,1.07-.36,2.14-.36,3.21,0,.82-.23,1.12-1,1.11-1.91,0-3.82,0-5.73,0-.88,0-1.37-.25-1.37-1.22,0-6.89,0-13.78,0-20.67A2.78,2.78,0,0,1,330.29,290.77Z"/><path class="cls-1" d="M315.53,310.33c.41,2.41-.07,3-2.23,3-1.29,0-2.59.06-3.88,0-.38,0-1-.49-1-.73q.17-4.31.53-8.62a45.64,45.64,0,0,1,.66-4.71,5.71,5.71,0,0,1,.82-1.52,4.86,4.86,0,0,1,.89,1.37c.62,2.7,1.16,5.42,1.71,8.14a2.2,2.2,0,0,1,0,.62C312.84,310.26,313.18,310.62,315.53,310.33Z"/><path class="cls-1" d="M274.19,300.18c.4,2.17.74,4.36,1.21,6.52a10.08,10.08,0,0,0,1,1.92,5.37,5.37,0,0,1,.75,1.87c.1,2.94-.58,3.47-3.5,2.83a1.42,1.42,0,0,1-.92-.84,9.47,9.47,0,0,1-.36-2.89c.22-2.72.62-5.43.85-8.15.08-.91-.25-1.84-.23-2.76a5.79,5.79,0,0,1,.49-1.59,5.37,5.37,0,0,1,.9,1.34,6.13,6.13,0,0,1,0,1.7Z"/><path class="cls-1" d="M277.69,310.92a13.31,13.31,0,0,0,1.3-2.74,16.41,16.41,0,0,0,.48-4.5c-.1-1.68-.67-3.34-.89-5,0-.38.54-.85.83-1.27.51.39,1.41.74,1.47,1.19.33,2.69.53,5.4.63,8.11a49.59,49.59,0,0,1-.19,5.54c-.09,1.21-1.07,1.15-2,1.19s-1.38-.26-1.29-1.23c0-.36,0-.72,0-1.09Z"/><path class="cls-1" d="M321,305.81c0,2.07.05,4.14,0,6.2,0,.45-.54.88-.83,1.32a5.54,5.54,0,0,1-1.16-1c-1.39-2.18-.63-4.52-.45-6.83.07-.84-.37-1.72-.31-2.57.11-1.58.4-3.14.67-4.7a.87.87,0,0,1,.52-.61.89.89,0,0,1,.75.38,4.41,4.41,0,0,1,.34,1.49c.13,2.12.21,4.23.31,6.35Z"/><path class="cls-1" d="M287.14,210.38a7.49,7.49,0,0,1,1.1-.47c.72-.13,1.44-.23,2.16-.34-.09.74-.14,1.48-.27,2.21a6.23,6.23,0,0,1-.44,1.13c-1.73-.16-3-1.67-3.52-4.1-.37-1.76.85-4.1,2.86-5.23l1.59,3.64-.41.44a17.8,17.8,0,0,1-2-.7c-1-.47-1.37-.22-1.27.85C287,208.6,287,209.39,287.14,210.38Z"/><path class="cls-1" d="M249,302a10.43,10.43,0,0,1,1.1,7.5c-.16.75-.22,1.54-.45,2.27-.11.37-.49.66-.75,1a8.41,8.41,0,0,1-.58-1.1,2,2,0,0,1,0-.77q.25-4,.51-8A7,7,0,0,1,249,302Z"/><path class="cls-1" d="M276.41,270c-.76-3.3-.74-3.37,1.77-4.61a30,30,0,0,1,4.25-1.8Z"/><path class="cls-1" d="M331.1,285.58a23.83,23.83,0,0,1-.24,3,1.28,1.28,0,0,1-.89.82,15.5,15.5,0,0,1-4.46-.32Z"/><path class="cls-1" d="M296.78,205.95c-1.25.55-2.08.94-2.94,1.27a3.29,3.29,0,0,1-.9.09,8.4,8.4,0,0,1,0-2.24c.17-.63.26-1.9,1.36-1.39A11.49,11.49,0,0,1,296.78,205.95Z"/><path class="cls-1" d="M296.94,210.51,294,213.44c-.53-1.27-1-2.17-1.29-3.11s.09-1.2.92-1S295.45,210,296.94,210.51Z"/><path class="cls-1" d="M259.66,286.84l4.55,2.31-.08.22h-5.27Z"/><path class="cls-1" d="M292.11,234.47c-.2,1-.11,2-1.42,1.67a6.71,6.71,0,0,1-1.62-.85l2-2.51Z"/><path class="cls-1" d="M307.16,261.68a3.26,3.26,0,0,1-2.23-5.12Z"/><path class="cls-1" d="M254.81,309.9a20.63,20.63,0,0,1,.26,2.55,1.11,1.11,0,0,1-.65.83,1.17,1.17,0,0,1-1-.37C252.72,311.91,253.31,310.54,254.81,309.9Z"/></svg>