<svg id="Layer_1" data-name="Layer 1" xmlns="http://www.w3.org/2000/svg" viewBox="0 0 595.28 841.89"><defs><style>.cls-1{fill:#fff;}</style></defs><title>dom</title><path class="cls-1" d="M277.6,544.15c-3.8,3.63-8.17,6.84-11.24,11-3.66,5-7.82,10.48-8.89,16.29-2.24,12.11-4.39,24.39-5.89,36.5-2.25,18.16-.69,36.82-.18,55.25.08,2.74,3.29,5.39,5.23,8.35,11.52-6.65,2.5-18.21,9.13-25.43,12.46,4.22,2.72,16.17,8.8,23.59h14.53c1.12-11.61-1.66-23.17,5.6-32.8h7.57c6.69,10.05,4.53,21.23,4.41,31.7,9.26,1.89,9.26,1.89,17.23-.6l1.2-21.86,8,.73,1.11,21.83,10.65.73c0-11.66-.51-22,.11-32.22,1.08-17.63-1.7-34.71-3.93-52.12-2-15.29-6-27.28-17.71-36.88-1.49-1.22-2.24-3.36-3.33-5.07,11.37,4,18.6,12.67,21.87,23.45a154,154,0,0,1,7.07,44.21c0,16.37-.11,32.73,0,49.1,0,3.45,1,6.89,1.67,10.79,7.29,0,13.6.22,19.89-.05,10-.43,20-1.79,29.93-1.68,33.06.35,66.12,1.25,99.18,1.72,3.38,0,6.78-1.41,11-2.37,0-13-.25-25.13.07-37.22.31-11.93-1.56-24,1.74-36.63h33.32v75.2h24c.38-5.59.92-10.17.95-14.75.12-18.49-.24-37,.27-55.46.18-6.37,2.36-12.69,3.78-19.8l-4-2.91c0-15.68-.31-31.5.11-47.3.28-10.57,3.36-21.09-.49-30.7l9-11.55-14.94-10.67V452.41c-9.92-8.62-9.76-21.21-11.7-32.68-2.12-12.5-.32-24.83,9.4-35.07l-10.22-7.37c3.16-27-5-47.8-34.78-56.18v-23.5l-4.24-5.92c-9.47,9.13,2.49,20.72-4.53,29.7-18.17,4.39-24.31,8.88-32,20.53-4.85,7.32-3.8,15.1-4.18,22.9-.32,6.63,1.38,13.79-5.39,18.61-.53.38-.19,2-.29,3.57l6.17,8.28c-1.74,13.76,1.43,27.15-2.85,40.91-4.07,13.05-4,27.39-5.91,42.18H409.48c0-14.12-2-29.16.56-43.4,2.47-13.88-5.65-28.53,3.94-41.22-6.81-6.5-7.33-14.57-8-23-2.64-35.62-17.34-65.15-47.65-84.84-13-8.44-28.15-13.51-43.48-20.66V240.87l-9.27-11.78c-2.26-9,1.07-17.33-5.4-24.12-1.61-1.69-.42-6.44.1-9.68.9-5.56,2.3-11,3.51-16.62l-4.76-7.35-6.44,7.41a64.09,64.09,0,0,1,.37,32.34c-2.48,10.66-1.33,21.93-11.7,29.19V267.1c-4.28,1.51-7.65,3.09-11.19,3.89-41.77,9.47-78.37,51.05-79.56,100.32-.19,7.76-1.95,14.39-7,20.2a21.34,21.34,0,0,0-2.17,3.77l6.88,8.13L183.33,424c4.55,8.39,5.76,35.18,2.36,54.09H131.61c-.53-10.17-.43-19.05-1.6-27.76s-4.92-17.15-5.17-25.79c-.39-13.27-4.47-27.39,5.87-39.32-8.41-6.56-6-15.46-6.22-23.61-.45-18.88-8.38-30.64-25.92-37.4a95.54,95.54,0,0,0-9.48-2.82c-7.45-10.06,4.37-20.75-5.58-29.4l-5,5.51v24.08C48.17,329.61,41.72,351.27,44.59,377l-8.74,7.81c3.07,7,7.24,12.51,7.55,18.19.53,9.86-1.63,19.84-2.12,29.8-.4,8.1-3.8,14.67-9.06,20.54v23.74l-15.13,10,8.81,11.11c0,3,.32,5.66-.09,8.23-.46,2.91-2.88,6.07-2.22,8.52,5.57,20.78.74,41.72,2.57,61.72L21.9,580c1.54,6.85,3.79,12.68,4,18.57.55,16.36.24,32.74.27,49.12,0,6.76,0,13.51,0,19.74C39,671.74,39,671.74,51.22,667V592.7L86,594.43v74.32c13.91,3.75,27.1,1.45,40.06,1.85,13.72.42,27.46.12,41.2.12,13.06,0,26.13.26,39.19-.09,13.52-.37,27.17,1.58,41.3-1.37,0-17.57.21-34.43-.06-51.28a166.79,166.79,0,0,1,6-47.52C257.28,557.82,263.28,547.14,277.6,544.15Z"/><path d="M277.6,544.15c-14.33,3-20.33,13.67-23.84,26.32a166.79,166.79,0,0,0-6,47.52c.26,16.85.06,33.7.06,51.28-14.13,3-27.78,1-41.3,1.37-13.05.35-26.12.09-39.19.09-13.73,0-27.48.3-41.2-.12-13-.4-26.15,1.9-40.06-1.85V594.43L51.22,592.7V667c-12.2,4.7-12.2,4.7-25.06.38,0-6.23,0-13,0-19.74,0-16.37.28-32.76-.27-49.12-.2-5.9-2.45-11.73-4-18.57l4.26-3.34c-1.83-20,3-40.95-2.57-61.72-.66-2.45,1.76-5.61,2.22-8.52.41-2.57.09-5.26.09-8.23L17.1,487.06l15.13-10V453.32c5.25-5.87,8.66-12.44,9.06-20.54.49-10,2.64-19.93,2.12-29.8-.3-5.69-4.48-11.17-7.55-18.19L44.59,377c-2.87-25.71,3.58-47.37,33.89-55.43V297.47l5-5.51c10,8.65-1.87,19.33,5.58,29.4a95.54,95.54,0,0,1,9.48,2.82c17.54,6.77,25.47,18.53,25.92,37.4.2,8.15-2.19,17,6.22,23.61-10.33,11.92-6.26,26-5.87,39.32.25,8.63,4,17.11,5.17,25.79s1.07,17.59,1.6,27.76h54.08c3.41-18.9,2.2-45.7-2.36-54.09l4.91-20.55-6.88-8.13a21.34,21.34,0,0,1,2.17-3.77c5.09-5.81,6.85-12.45,7-20.2C191.76,322,228.36,280.47,270.13,271c3.54-.8,6.9-2.38,11.19-3.89V240.25c10.37-7.25,9.23-18.53,11.7-29.19a64.09,64.09,0,0,0-.37-32.34l6.44-7.41,4.76,7.35c-1.21,5.58-2.6,11.06-3.51,16.62-.53,3.24-1.71,8-.1,9.68,6.47,6.79,3.14,15.15,5.4,24.12l9.27,11.78v24.35c15.33,7.14,30.5,12.22,43.48,20.66,30.31,19.69,45,49.22,47.65,84.84.63,8.45,1.14,16.52,8,23-9.59,12.69-1.47,27.34-3.94,41.22-2.54,14.24-.56,29.28-.56,43.4h54.39c1.89-14.79,1.85-29.13,5.91-42.18,4.29-13.76,1.11-27.16,2.85-40.91L466.46,387c.1-1.57-.24-3.19.29-3.57,6.77-4.82,5.07-12,5.39-18.61.38-7.8-.68-15.58,4.18-22.9,7.73-11.65,13.87-16.13,32-20.53,7-9-4.94-20.57,4.53-29.7l4.24,5.92v23.5c29.82,8.37,37.95,29.17,34.78,56.18l10.22,7.37c-9.72,10.24-11.52,22.57-9.4,35.07,1.94,11.47,1.79,24.06,11.7,32.68v24.12l14.94,10.67-9,11.55c3.85,9.61.77,20.13.49,30.7-.42,15.8-.11,31.62-.11,47.3l4,2.91c-1.42,7.1-3.6,13.42-3.78,19.8-.51,18.47-.15,37-.27,55.46,0,4.58-.57,9.16-.95,14.75h-24v-75.2H512.45c-3.3,12.6-1.43,24.7-1.74,36.63-.32,12.09-.07,24.19-.07,37.22-4.25,1-7.65,2.42-11,2.37-33.06-.47-66.11-1.37-99.18-1.72-10-.11-19.94,1.25-29.93,1.68-6.29.27-12.61.05-19.89.05-.63-3.91-1.64-7.35-1.67-10.79-.16-16.36,0-32.73,0-49.1a154,154,0,0,0-7.07-44.21c-3.26-10.78-10.49-19.44-21.87-23.45-11-5.7-23.27,1.5-32.37-3.23ZM512.91,394.82c-14.57,11.91-6.34,27-8,40.32h19.31C519.55,421.37,530.42,405.39,512.91,394.82ZM92.18,436.11C89,421.83,98,406.86,83.39,395.34l-8.69,7.17v33.6Zm214.91,44.3V447.25c-6.58-5.28-12-5.57-17.3.31v32.85Z"/><path d="M277.6,544.15l10-4.23c9.11,4.73,21.33-2.47,32.37,3.23,1.09,1.71,1.84,3.85,3.33,5.07C335,557.82,339,569.81,341,585.09c2.23,17.41,5,34.49,3.93,52.12-.63,10.24-.11,20.56-.11,32.22l-10.65-.73-1.11-21.83-8-.73L323.9,668c-8,2.5-8,2.5-17.23.6.12-10.47,2.28-21.64-4.41-31.7h-7.57c-7.26,9.63-4.48,21.19-5.6,32.8H274.56c-6.09-7.42,3.66-19.37-8.8-23.59-6.63,7.22,2.38,18.78-9.13,25.43-1.94-3-5.15-5.62-5.23-8.35-.51-18.43-2.06-37.09.18-55.25,1.5-12.11,3.65-24.39,5.89-36.5,1.07-5.81,5.23-11.31,8.89-16.29C269.43,551,273.81,547.78,277.6,544.15Z"/><path class="cls-1" d="M512.91,394.82c17.51,10.57,6.64,26.56,11.27,40.32H504.88C506.57,421.79,498.35,406.73,512.91,394.82Z"/><path class="cls-1" d="M92.18,436.11H74.7v-33.6l8.69-7.17C98,406.86,89,421.83,92.18,436.11Z"/><path class="cls-1" d="M307.09,480.41h-17.3V447.56c5.28-5.88,10.71-5.59,17.3-.31Z"/></svg>