<svg id="Layer_1" data-name="Layer 1" xmlns="http://www.w3.org/2000/svg" viewBox="0 0 595.28 841.89"><defs><style>.cls-1{fill:#fff;}</style></defs><title>fst</title><path class="cls-1" d="M15,705.89V138H581.84V705.89ZM284.79,315.53c-.7,3.32-1.31,6.58,4.15,6.68,0,10.12,0,19.94-.06,29.75,0,1-.75,2.72-1.31,2.79-5.32.67-2.66,4.17-2.79,6l4.2,2.88c-1.17,1.17-2.14,2.74-3.54,3.45-18.38,9.36-27.57,28.85-22.21,48.05,3.78,13.55,12.39,23,25.66,27.85,3.12,1.15,4.73,2.58,4.17,6.11a30,30,0,0,0-.06,5.4l-5.65,3.23,4.35,5.39-4,1.23c-2.07,4.48,1.48,4.58,4.25,5.22,0,3.74.08,7.22,0,10.69q-1.47,54.46-3,108.93c-.78,28-1.55,56-2.49,83.93-.09,2.79-1.25,5.58-2.14,8.3-.82,2.51,1.45,9.25,3.49,9.27,10.28.12,20.57.05,31,.05,0-7.92.15-15.34,0-22.76q-2.2-97.2-4.55-194.39c-.07-3,.55-4.85,3.95-4.72.23,0,.48-.39.62-.51v-4l-5.56-1.81,5.84-1.78-.36-4.43-4.92-.82c0-2.6.18-4.93,0-7.22-.29-2.94.85-4.3,3.63-5.42,15.54-6.27,24.84-17.82,26.39-34.51,1.67-18-6.37-31.43-21.9-40.54-1.53-.89-2.63-2.51-3.92-3.8l4.64-3.57c-.21-1.77,1.77-5.13-3-5.63-.55-.06-1.32-1.8-1.33-2.76q-.09-13.5.13-27c0-1,.66-2.91,1.15-3,5.28-.52,2.87-4,3.16-7.15a40.75,40.75,0,0,0-5.77,0c-5.21.8-6.9-1.3-6.93-6.51-.13-18.49-.62-37-1.08-55.47-.66-26.82-1.35-53.63-2.22-80.44-.09-2.93,1.16-7.87-3.84-7.68-4.72.18-2.95,4.91-3,7.66-1,43.65-1.85,87.3-2.77,130.95-.23,10.69-.31,10.69-11.2,11.55A4.53,4.53,0,0,0,284.79,315.53Z"/><path d="M284.79,315.53a4.53,4.53,0,0,1,1.12-.5c10.89-.86,11-.86,11.2-11.55.92-43.65,1.75-87.3,2.77-130.95.06-2.75-1.71-7.48,3-7.66,5-.19,3.74,4.75,3.84,7.68.87,26.81,1.56,53.62,2.22,80.44.46,18.49.95,37,1.08,55.47,0,5.21,1.73,7.31,6.93,6.51a40.75,40.75,0,0,1,5.77,0c-.29,3.12,2.11,6.63-3.16,7.15-.49,0-1.14,1.92-1.15,3q-.2,13.5-.13,27c0,1,.78,2.7,1.33,2.76,4.81.5,2.83,3.85,3,5.63L318,364c1.3,1.28,2.4,2.9,3.92,3.8,15.53,9.1,23.57,22.49,21.9,40.54C342.27,425,333,436.57,317.43,442.83c-2.78,1.12-3.92,2.48-3.63,5.42.23,2.29,0,4.62,0,7.22l4.92.82.36,4.43-5.84,1.78,5.56,1.81v4c-.14.12-.39.52-.62.51-3.39-.13-4,1.68-3.95,4.72q2.36,97.19,4.55,194.39c.17,7.42,0,14.84,0,22.76-10.46,0-20.74.06-31-.05-2,0-4.31-6.76-3.49-9.27.89-2.72,2-5.51,2.14-8.3.94-28,1.71-56,2.49-83.93q1.53-54.46,3-108.93c.09-3.47,0-6.95,0-10.69-2.78-.63-6.32-.74-4.25-5.22l4-1.23-4.35-5.39,5.65-3.23a30,30,0,0,1,.06-5.4c.56-3.52-1-5-4.17-6.11-13.26-4.87-21.87-14.31-25.66-27.85-5.36-19.2,3.83-38.69,22.21-48.05,1.4-.71,2.37-2.28,3.54-3.45l-4.2-2.88c.13-1.78-2.52-5.28,2.79-6,.56-.07,1.3-1.82,1.31-2.79.1-9.81.06-19.63.06-29.75C283.47,322.11,284.09,318.86,284.79,315.53Z"/></svg>