<svg id="Layer_1" data-name="Layer 1" xmlns="http://www.w3.org/2000/svg" viewBox="0 0 595.28 841.89"><title>kid</title><path d="M345.87,600.2c-16.78,15-28.41,33.61-36,54.58-8,22.15-22,37.65-44.32,46-13,4.9-23.33,11.9-24.35,28.69-.78,12.91-11.81,20.61-25,22.31-3.74.48-8.4,1-10.82,3.41-9.54,9.41-19.94,7.5-30.8,3.83-7.08-2.4-14.12-4.91-21.24-7.21-4-1.29-8.07-2.24-12.1-3.34l-1.5,2.35c6.09,4.1,11.94,8.65,18.35,12.16,5.59,3.06,11.64,6.2,17.8,7.07,12.31,1.72,16,9.13,17.85,20.14,3.78,23.09-6.47,34.89-29.89,32.31-18-2-33.25-10.36-45.79-23.22-7.91-8.12-9.56-18.32-9.25-29.62.32-11.8.17-24.13-2.85-35.4-8.8-32.81-1.15-47.75,31.84-55.22,17.1-3.87,28.23-12.73,31.73-30.21,2.54-12.67,10.77-21.28,20.15-29.28A116.93,116.93,0,0,0,203.18,606c5.52-6.55,6.93-14,2.36-21.77-6.53-11.08-4.62-20.62,3.81-30.1,5.63-6.33,9.87-13.89,13.52-19.14-1.28-12.39-1.68-23.33-3.76-33.93-1.43-7.31-3.68-15.4-8.23-21-10.51-12.83-8.27-27-5.86-40.76,3-16.75,8.2-33.12,12.68-49.59,9.59-35.29,19.18-70.59,29.12-105.79A122,122,0,0,1,256,260.1c14.27-27,36.17-41.44,67.56-39.33,2.45.16,4.93.05,7.39,0,.21,0,.41-.41,2.33-2.45l-30.2-6.22-7.48-40.68-13.13,5.9c14.49-16,6.29-33.9,4.7-50.61-3.51-36.87,9-65.56,42.12-85.7l-10.72-5.61.44-2.37,34.52,1.76,6-15.92c5.61,23,25.51,23.57,40.34,30.87,21.57,10.62,38.56,24.23,48,47.49,5.42,13.41,14.73,25.22,14.1,41.54l-6.17-3.08c-5.7,10-12,19.11-16.25,29.15-2.38,5.65-2.19,12.83-1.56,19.16.55,5.56,2.3,10.55-4.13,13.72-1.19.59-3,1.9-2.94,2.74,1,13-8.39,17.3-17.73,21.84a4.49,4.49,0,0,0-1.8,3.58c.7,12.31-8.26,12.11-15.06,9.5-9.75-3.74-18.51-10.09-27.61-15.47-4.08-2.41-8-5.16-11.95-7.76l-2.35,2.3c3.1,3.9,5.66,8.41,9.37,11.59,31.77,27.23,49.45,61.6,54,103.14,3.61,33.27-1.53,65.31-11.77,96.84-4.43,13.65-8.1,26.86,2,40.51,5.6,7.55,2.09,14.69-8,18.2-24.59,8.57-50.08,10.09-75.87,7.5-3-.3-5.93-1-9-.63C342.71,509,370.81,507,399.58,493.6c6.61,14.41,13.14,28.78,19.78,43.1,3.74,8.06,6.88,16.54,11.66,23.95,6.18,9.57,13.77,17.92,10.25,31-.87,3.22,2.84,7.73,4.55,11.59,6,13.49,11.58,26.34,1.37,41.17-2.75,4-.1,13.92,3.05,19.4,11,19.13,11,19.55-3.13,35.87-3.8,4.38-4,11.74-6.53,17.41-1.81,4-4,9-7.46,10.94-11.79,6.42-24.22,11.64-35.84,19.68,13.49-2.77,27-5.6,40.47-8.26,3-.59,6.38-1.51,9.08-.66,10.31,3.25,20.41,7.16,30.59,10.8,1.68.6,3.93.56,5,1.69,4,4.18,9.53,8.31,10.63,13.31.64,2.88-5.41,8.87-9.67,10.92-19.66,9.49-40.93,12.3-62.46,11.32a321.26,321.26,0,0,1-48.64-5.54c-16.35-3.29-18.47-9-17.27-25.61.47-6.53-2.28-13.66-4.86-20-5.05-12.34-11.16-24.24-16.57-36.43-3.73-8.41-6.19-17.52-10.77-25.4-4.75-8.18-4.31-15,0-23,8.74-16.18,16.83-32.71,25.19-49.09Z"/></svg>