<svg id="Layer_1" data-name="Layer 1" xmlns="http://www.w3.org/2000/svg" viewBox="0 0 213.64 93.94"><title>reichstag</title><path d="M9.43,85.59c.94-6.11,2.3-11.61,2.5-17.15.25-6.77-1-13.6-.54-20.34.22-3.31,3.08-6.38,4.13-9.74s1.26-6.76,1.85-10.16l-1.27-1.62L29.6,23.73,30,18.25l-5.76.46C23.81,14,27.5,13.07,31,10.58l.83,14.19c12.67-1.69,12.46,6.89,11.66,15.72h35.9l5-17.85,1.1,0,2.67,5.94c10-15.74,28.42-16.13,39.58-.7l2.6-5.26,1.23-.19,5.27,18.18H172c.35-2.08,1.09-4,.91-5.76-.76-7.67.57-9.35,8.55-10.06.64-.06,1.27-.22,2.36-.41l.39-5.76-4.79.6c-2-5.41,3-5.92,6.39-9.31l.95,14.78a61.76,61.76,0,0,1,7.48.06c3.43.43,6,1.49,4.75,6.13-1,3.46-1.84,7.62,4.73,8.64.18,8.29.21,16.46.59,24.61.33,6.94,1.06,13.85,1.68,21.5Z"/></svg>