<svg id="Layer_1" data-name="Layer 1" xmlns="http://www.w3.org/2000/svg" viewBox="0 0 595.28 841.89"><title>sgs</title><path d="M311.87,166.18l1.35,16.73,4.74,6.26-2,8.25,12.26,1.08c2.8,7.65-2.71,10.14-6.44,13.54-3.33,3-6.68,6.07-7.62,6.93-1.31,13.95,4.72,22.51,10.26,32.55l-12.11,6-.29,5.28,7.76,2.8,3,22.32c-6,12.2-5.11,28.08-5,43.82.08,9.06.79,18.11,1.35,30-3.06,7.2-1.51,17.7-.82,28.08.34,5.12,2.11,10.19,2.15,15.29q.35,41.84.08,83.68c0,7.19.46,14.12,3,21,1.9,5.2,2.89,10.74,4.45,16.81h23.45l16.1,8.38-7.82,12.57c-1.21,17.71-5.68,38.28,6.69,57.07h11.92l7.64,5.94,11.15.6,4.9,9.35c-8.25,14.25,0,28.63-.26,43.93,11.12,2.53,22.54.92,33.83,1.19,11.54.28,23.08.06,35.66.06,7.54,6.89,17.33,9.26,28.15,8.78,8.64-.38,17.32-.34,26,.07,2.91.14,5.74,2,8.12,5H68.14c3.72-5,3.72-5.12,7.35-5.14,12.5-.08,25,0,37.18,0l17.47-8.8h68c1.84-14.9,7.92-29.36.71-44.77l4.34-9.43h10.4l7.81-6.08,11.89-.56,5.65-7.73c5.54-15.77,4.11-33.51,1.59-51L233,535l15.4-8h23.79c7.6-20.67,8.57-41.76,8-63.17-.56-19.7-.38-39.44,0-59.15.19-8.93,1.89-17.82,2.67-26.75.84-9.64-1-19.22-.53-29,.4-9.16,1.26-18.47.72-27.76-.61-10.51-1.05-20.83-4.3-31.11-2.08-6.59-1.45-14-2.1-22l12.93-6.19-9.7-9.07,8.41-14.16,1.64-21c-3.72-7.61-17.73-6.18-21.56-18.18l10.95-2.71c2.67-6.65-4.28-10.91-4.93-18.39l3.92-3.77c6.18,1.67,9.32,5.28,7,9.69-2.44,4.7.56,6.88,2.17,10.37h8.62l-1.41-7.25,11.34-2.16V166.18Zm-48.79,418.3c3.45-8.26,2.35-16.73,2.25-25.1,0-1.19-1.87-2.35-4.32-5.21C259.92,565.9,258.58,575.24,263.08,584.48ZM339.64,556l-4.19,1.62c-.89,20.38-.89,20.38,3.92,26.82C340.52,575.14,341.53,565.87,339.64,556Z"/></svg>